<?xml version="1.0" ?><svg id="social_x5F_heart" style="enable-background:new 0 0 32.552 28.278;" version="1.1" viewBox="0 0 32.552 28.278" xml:space="preserve" xmlns="http://www.w3.org/2000/svg" xmlns:xlink="http://www.w3.org/1999/xlink"><g><g><path d="M16.278,28.278c-0.265,0-0.52-0.105-0.707-0.293l-13-13C0.913,13.327,0,11.123,0,8.778    s0.913-4.55,2.571-6.207C4.229,0.913,6.433,0,8.778,0s4.549,0.913,6.207,2.571l1.293,1.293l1.293-1.293    C19.229,0.913,21.434,0,23.778,0s4.549,0.913,6.207,2.571c3.422,3.422,3.422,8.991,0,12.414l-13,13    C16.798,28.173,16.543,28.278,16.278,28.278z M8.778,2C6.967,2,5.266,2.705,3.985,3.985S2,6.968,2,8.778s0.705,3.513,1.985,4.793    l12.293,12.293l12.292-12.293c2.643-2.644,2.643-6.943,0-9.586C27.291,2.705,25.589,2,23.778,2s-3.513,0.705-4.793,1.985l-2,2    c-0.391,0.391-1.023,0.391-1.414,0l-2-2l0,0C12.291,2.705,10.588,2,8.778,2z" style="fill:#FD5C3F;"/></g><g><path d="M27.278,9.278c-0.552,0-1-0.447-1-1c0-1.103-0.897-2-2-2c-0.552,0-1-0.447-1-1s0.448-1,1-1    c2.206,0,4,1.794,4,4C28.278,8.831,27.831,9.278,27.278,9.278z" style="fill:#FD5C3F;"/></g></g></svg>