<svg xmlns="http://www.w3.org/2000/svg" width="256" height="256" viewBox="0 0 100 100"><rect width="100" height="100" rx="20" fill="#7d6ee7"></rect><path d="M24.93 77.22L24.93 77.22Q24.48 77.41 23.58 77.63Q22.68 77.86 21.60 77.86L21.60 77.86Q17.64 77.86 17.64 74.53L17.64 74.53L17.64 22.87Q18.09 22.69 19.04 22.46Q19.98 22.24 21.06 22.24L21.06 22.24Q24.93 22.24 24.93 25.57L24.93 25.57L24.93 77.22ZM64.35 76.69L64.35 76.69Q63.90 77.14 62.64 77.50Q61.38 77.86 59.85 77.86L59.85 77.86Q58.14 77.86 56.79 77.36Q55.44 76.86 54.99 75.88L54.99 75.88Q53.82 73.53 52.25 69.84Q50.67 66.16 48.92 61.61Q47.16 57.06 45.32 52.03Q43.47 46.98 41.76 42.04Q40.05 37.09 38.52 32.45Q36.99 27.82 35.91 24.13L35.91 24.13Q36.45 23.41 37.53 22.78Q38.61 22.15 39.96 22.15L39.96 22.15Q41.67 22.15 42.48 22.96Q43.29 23.77 43.83 25.39L43.83 25.39Q47.88 37.18 51.57 48.16Q55.26 59.14 59.67 70.47L59.67 70.47L60.03 70.47Q62.01 65.34 64.13 59.54Q66.24 53.73 68.27 47.57Q70.29 41.41 72.23 35.11Q74.16 28.80 75.69 22.78L75.69 22.78Q76.86 22.15 78.75 22.15L78.75 22.15Q80.38 22.15 81.36 22.96Q82.35 23.77 82.35 25.39L82.35 25.39Q82.35 26.74 81.32 30.47Q80.28 34.21 78.66 39.16Q77.04 44.11 75.02 49.78Q72.99 55.45 71.01 60.67Q69.03 65.89 67.23 70.20Q65.44 74.53 64.35 76.69Z" fill="#fff"></path></svg>